<mxfile host="Electron" modified="2023-05-24T10:22:03.804Z" agent="Mozilla/5.0 (Macintosh; Intel Mac OS X 10_15_7) AppleWebKit/537.36 (KHTML, like Gecko) draw.io/21.2.8 Chrome/112.0.5615.165 Electron/24.2.0 Safari/537.36" etag="8B1OP5Yp1w2FNC_Vp9eh" version="21.2.8" type="device" pages="3">
  <diagram name="第 1 页" id="xOJoKtgt8Ddd34INUQvb">
    <mxGraphModel dx="1026" dy="685" grid="1" gridSize="10" guides="1" tooltips="1" connect="1" arrows="1" fold="1" page="1" pageScale="1" pageWidth="827" pageHeight="1169" background="#ffffff" math="0" shadow="0">
      <root>
        <mxCell id="0" />
        <mxCell id="1" parent="0" />
        <mxCell id="l4nDympWHwnlUu9fDvc6-2" value="" style="rounded=0;whiteSpace=wrap;html=1;fillColor=#1ba1e2;fontColor=#ffffff;strokeColor=#006EAF;" parent="1" vertex="1">
          <mxGeometry x="40" y="400" width="310" height="310" as="geometry" />
        </mxCell>
        <mxCell id="RvprJJX-AlY8sj3UsmGO-6" value="" style="rounded=1;whiteSpace=wrap;html=1;fillColor=#fff2cc;strokeColor=#d6b656;" parent="1" vertex="1">
          <mxGeometry x="210" y="420" width="130" height="285" as="geometry" />
        </mxCell>
        <mxCell id="l4nDympWHwnlUu9fDvc6-1" value="" style="rounded=0;whiteSpace=wrap;html=1;fillColor=#1ba1e2;strokeColor=#006EAF;fontColor=#ffffff;" parent="1" vertex="1">
          <mxGeometry x="120" y="200" width="230" height="120" as="geometry" />
        </mxCell>
        <mxCell id="l4nDympWHwnlUu9fDvc6-3" value="" style="rounded=0;whiteSpace=wrap;html=1;fillColor=#60a917;strokeColor=#2D7600;fontColor=#ffffff;" parent="1" vertex="1">
          <mxGeometry x="480" y="310" width="300" height="120" as="geometry" />
        </mxCell>
        <mxCell id="l4nDympWHwnlUu9fDvc6-4" value="用户集群" style="text;html=1;strokeColor=none;fillColor=none;align=center;verticalAlign=middle;whiteSpace=wrap;rounded=0;" parent="1" vertex="1">
          <mxGeometry x="210" y="200" width="60" height="30" as="geometry" />
        </mxCell>
        <mxCell id="l4nDympWHwnlUu9fDvc6-5" value="用户集群" style="text;html=1;strokeColor=none;fillColor=none;align=center;verticalAlign=middle;whiteSpace=wrap;rounded=0;" parent="1" vertex="1">
          <mxGeometry x="165" y="400" width="60" height="30" as="geometry" />
        </mxCell>
        <mxCell id="l4nDympWHwnlUu9fDvc6-10" style="edgeStyle=orthogonalEdgeStyle;rounded=0;orthogonalLoop=1;jettySize=auto;html=1;exitX=1;exitY=0.5;exitDx=0;exitDy=0;entryX=0;entryY=0;entryDx=0;entryDy=0;" parent="1" source="l4nDympWHwnlUu9fDvc6-6" target="l4nDympWHwnlUu9fDvc6-8" edge="1">
          <mxGeometry relative="1" as="geometry" />
        </mxCell>
        <mxCell id="l4nDympWHwnlUu9fDvc6-13" value="http请求" style="edgeLabel;html=1;align=center;verticalAlign=middle;resizable=0;points=[];" parent="l4nDympWHwnlUu9fDvc6-10" vertex="1" connectable="0">
          <mxGeometry x="-0.4614" y="4" relative="1" as="geometry">
            <mxPoint as="offset" />
          </mxGeometry>
        </mxCell>
        <mxCell id="l4nDympWHwnlUu9fDvc6-6" value="kse" style="ellipse;whiteSpace=wrap;html=1;fillColor=#f8cecc;strokeColor=#b85450;" parent="1" vertex="1">
          <mxGeometry x="220" y="240" width="120" height="50" as="geometry" />
        </mxCell>
        <mxCell id="l4nDympWHwnlUu9fDvc6-11" style="edgeStyle=orthogonalEdgeStyle;rounded=0;orthogonalLoop=1;jettySize=auto;html=1;exitX=1;exitY=0.5;exitDx=0;exitDy=0;entryX=0;entryY=1;entryDx=0;entryDy=0;" parent="1" source="RvprJJX-AlY8sj3UsmGO-3" target="l4nDympWHwnlUu9fDvc6-8" edge="1">
          <mxGeometry relative="1" as="geometry" />
        </mxCell>
        <mxCell id="l4nDympWHwnlUu9fDvc6-12" value="http请求" style="edgeLabel;html=1;align=center;verticalAlign=middle;resizable=0;points=[];" parent="l4nDympWHwnlUu9fDvc6-11" vertex="1" connectable="0">
          <mxGeometry x="-0.3998" y="2" relative="1" as="geometry">
            <mxPoint as="offset" />
          </mxGeometry>
        </mxCell>
        <mxCell id="RvprJJX-AlY8sj3UsmGO-7" style="edgeStyle=orthogonalEdgeStyle;rounded=0;orthogonalLoop=1;jettySize=auto;html=1;exitX=0.5;exitY=1;exitDx=0;exitDy=0;entryX=0.5;entryY=0;entryDx=0;entryDy=0;" parent="1" source="l4nDympWHwnlUu9fDvc6-7" target="RvprJJX-AlY8sj3UsmGO-4" edge="1">
          <mxGeometry relative="1" as="geometry" />
        </mxCell>
        <mxCell id="l4nDympWHwnlUu9fDvc6-7" value="ks-apiserver" style="ellipse;whiteSpace=wrap;html=1;fillColor=#f8cecc;strokeColor=#b85450;" parent="1" vertex="1">
          <mxGeometry x="215" y="470" width="120" height="50" as="geometry" />
        </mxCell>
        <mxCell id="l4nDympWHwnlUu9fDvc6-15" style="edgeStyle=orthogonalEdgeStyle;rounded=0;orthogonalLoop=1;jettySize=auto;html=1;exitX=1;exitY=0.5;exitDx=0;exitDy=0;entryX=0;entryY=0.5;entryDx=0;entryDy=0;" parent="1" source="l4nDympWHwnlUu9fDvc6-8" target="l4nDympWHwnlUu9fDvc6-14" edge="1">
          <mxGeometry relative="1" as="geometry" />
        </mxCell>
        <mxCell id="l4nDympWHwnlUu9fDvc6-8" value="telemetry server" style="ellipse;whiteSpace=wrap;html=1;fillColor=#f8cecc;strokeColor=#b85450;" parent="1" vertex="1">
          <mxGeometry x="490" y="350" width="110" height="50" as="geometry" />
        </mxCell>
        <mxCell id="l4nDympWHwnlUu9fDvc6-9" value="青云集群" style="text;html=1;strokeColor=none;fillColor=none;align=center;verticalAlign=middle;whiteSpace=wrap;rounded=0;" parent="1" vertex="1">
          <mxGeometry x="570" y="310" width="60" height="30" as="geometry" />
        </mxCell>
        <mxCell id="l4nDympWHwnlUu9fDvc6-14" value="es" style="ellipse;whiteSpace=wrap;html=1;fillColor=#f8cecc;strokeColor=#b85450;" parent="1" vertex="1">
          <mxGeometry x="650" y="350" width="100" height="50" as="geometry" />
        </mxCell>
        <mxCell id="RvprJJX-AlY8sj3UsmGO-2" style="edgeStyle=orthogonalEdgeStyle;rounded=0;orthogonalLoop=1;jettySize=auto;html=1;exitX=1;exitY=0.5;exitDx=0;exitDy=0;" parent="1" source="RvprJJX-AlY8sj3UsmGO-1" target="l4nDympWHwnlUu9fDvc6-7" edge="1">
          <mxGeometry relative="1" as="geometry" />
        </mxCell>
        <mxCell id="RvprJJX-AlY8sj3UsmGO-1" value="console" style="ellipse;whiteSpace=wrap;html=1;fillColor=#f8cecc;strokeColor=#b85450;" parent="1" vertex="1">
          <mxGeometry x="40" y="470" width="120" height="50" as="geometry" />
        </mxCell>
        <mxCell id="RvprJJX-AlY8sj3UsmGO-3" value="ks-controller-manager" style="ellipse;whiteSpace=wrap;html=1;fillColor=#f8cecc;strokeColor=#b85450;" parent="1" vertex="1">
          <mxGeometry x="215" y="620" width="120" height="50" as="geometry" />
        </mxCell>
        <mxCell id="RvprJJX-AlY8sj3UsmGO-8" style="edgeStyle=orthogonalEdgeStyle;rounded=0;orthogonalLoop=1;jettySize=auto;html=1;exitX=0.5;exitY=1;exitDx=0;exitDy=0;entryX=0.5;entryY=0;entryDx=0;entryDy=0;" parent="1" source="RvprJJX-AlY8sj3UsmGO-4" target="RvprJJX-AlY8sj3UsmGO-3" edge="1">
          <mxGeometry relative="1" as="geometry" />
        </mxCell>
        <mxCell id="RvprJJX-AlY8sj3UsmGO-4" value="kubesphere配置文件（configmap）" style="shape=parallelogram;perimeter=parallelogramPerimeter;whiteSpace=wrap;html=1;fixedSize=1;" parent="1" vertex="1">
          <mxGeometry x="220" y="550" width="110" height="35" as="geometry" />
        </mxCell>
        <mxCell id="RvprJJX-AlY8sj3UsmGO-9" value="kse" style="text;html=1;strokeColor=none;fillColor=none;align=center;verticalAlign=middle;whiteSpace=wrap;rounded=0;" parent="1" vertex="1">
          <mxGeometry x="240" y="430" width="60" height="30" as="geometry" />
        </mxCell>
      </root>
    </mxGraphModel>
  </diagram>
  <diagram id="JQjOsurOaGvSm0Gwn7yf" name="rancher埋点实现">
    <mxGraphModel dx="1026" dy="685" grid="1" gridSize="10" guides="1" tooltips="1" connect="1" arrows="1" fold="1" page="1" pageScale="1" pageWidth="827" pageHeight="1169" background="#ffffff" math="0" shadow="0">
      <root>
        <mxCell id="0" />
        <mxCell id="1" parent="0" />
        <mxCell id="GOMUIUu2Eh7TMkzUjBmT-2" value="" style="rounded=1;whiteSpace=wrap;html=1;fillColor=#1ba1e2;fontColor=#ffffff;strokeColor=#006EAF;" parent="1" vertex="1">
          <mxGeometry x="240" y="120" width="200" height="380" as="geometry" />
        </mxCell>
        <mxCell id="GOMUIUu2Eh7TMkzUjBmT-3" value="rancher" style="text;html=1;strokeColor=none;fillColor=none;align=center;verticalAlign=middle;whiteSpace=wrap;rounded=0;" parent="1" vertex="1">
          <mxGeometry x="310" y="130" width="60" height="30" as="geometry" />
        </mxCell>
        <mxCell id="GOMUIUu2Eh7TMkzUjBmT-15" style="edgeStyle=orthogonalEdgeStyle;rounded=0;orthogonalLoop=1;jettySize=auto;html=1;exitX=1;exitY=0.5;exitDx=0;exitDy=0;" parent="1" source="GOMUIUu2Eh7TMkzUjBmT-4" target="GOMUIUu2Eh7TMkzUjBmT-5" edge="1">
          <mxGeometry relative="1" as="geometry" />
        </mxCell>
        <mxCell id="qAYzdebrUSNBeTwNiEMu-4" value="收集数据并上传" style="edgeLabel;html=1;align=center;verticalAlign=middle;resizable=0;points=[];" parent="GOMUIUu2Eh7TMkzUjBmT-15" vertex="1" connectable="0">
          <mxGeometry x="0.0455" y="-1" relative="1" as="geometry">
            <mxPoint as="offset" />
          </mxGeometry>
        </mxCell>
        <mxCell id="GOMUIUu2Eh7TMkzUjBmT-4" value="telemetry cli" style="ellipse;whiteSpace=wrap;html=1;fillColor=#f8cecc;strokeColor=#b85450;" parent="1" vertex="1">
          <mxGeometry x="280" y="400" width="120" height="80" as="geometry" />
        </mxCell>
        <mxCell id="GOMUIUu2Eh7TMkzUjBmT-5" value="telemetry server" style="ellipse;whiteSpace=wrap;html=1;fillColor=#f8cecc;strokeColor=#b85450;" parent="1" vertex="1">
          <mxGeometry x="620" y="400" width="120" height="80" as="geometry" />
        </mxCell>
        <mxCell id="GOMUIUu2Eh7TMkzUjBmT-6" value="setting&lt;br&gt;cr" style="shape=parallelogram;perimeter=parallelogramPerimeter;whiteSpace=wrap;html=1;fixedSize=1;fillColor=#f0a30a;fontColor=#000000;strokeColor=#BD7000;" parent="1" vertex="1">
          <mxGeometry x="610" y="190" width="120" height="60" as="geometry" />
        </mxCell>
        <mxCell id="GOMUIUu2Eh7TMkzUjBmT-10" style="edgeStyle=orthogonalEdgeStyle;rounded=0;orthogonalLoop=1;jettySize=auto;html=1;" parent="1" source="GOMUIUu2Eh7TMkzUjBmT-8" target="GOMUIUu2Eh7TMkzUjBmT-6" edge="1">
          <mxGeometry relative="1" as="geometry">
            <Array as="points">
              <mxPoint x="500" y="220" />
              <mxPoint x="500" y="220" />
            </Array>
          </mxGeometry>
        </mxCell>
        <mxCell id="GOMUIUu2Eh7TMkzUjBmT-11" value="1，查询telemetry设置是否开启" style="edgeLabel;html=1;align=center;verticalAlign=middle;resizable=0;points=[];" parent="GOMUIUu2Eh7TMkzUjBmT-10" vertex="1" connectable="0">
          <mxGeometry x="-0.2" y="-2" relative="1" as="geometry">
            <mxPoint x="6" y="-2" as="offset" />
          </mxGeometry>
        </mxCell>
        <mxCell id="GOMUIUu2Eh7TMkzUjBmT-12" style="edgeStyle=orthogonalEdgeStyle;rounded=0;orthogonalLoop=1;jettySize=auto;html=1;" parent="1" source="GOMUIUu2Eh7TMkzUjBmT-8" target="GOMUIUu2Eh7TMkzUjBmT-5" edge="1">
          <mxGeometry relative="1" as="geometry">
            <Array as="points">
              <mxPoint x="680" y="280" />
            </Array>
          </mxGeometry>
        </mxCell>
        <mxCell id="GOMUIUu2Eh7TMkzUjBmT-13" value="2，获取token" style="edgeLabel;html=1;align=center;verticalAlign=middle;resizable=0;points=[];" parent="GOMUIUu2Eh7TMkzUjBmT-12" vertex="1" connectable="0">
          <mxGeometry x="-0.3814" y="1" relative="1" as="geometry">
            <mxPoint as="offset" />
          </mxGeometry>
        </mxCell>
        <mxCell id="GOMUIUu2Eh7TMkzUjBmT-14" style="edgeStyle=orthogonalEdgeStyle;rounded=0;orthogonalLoop=1;jettySize=auto;html=1;exitX=0.5;exitY=1;exitDx=0;exitDy=0;" parent="1" source="GOMUIUu2Eh7TMkzUjBmT-8" target="GOMUIUu2Eh7TMkzUjBmT-4" edge="1">
          <mxGeometry relative="1" as="geometry" />
        </mxCell>
        <mxCell id="GOMUIUu2Eh7TMkzUjBmT-16" value="3，启动telemetry客户端" style="edgeLabel;html=1;align=center;verticalAlign=middle;resizable=0;points=[];" parent="GOMUIUu2Eh7TMkzUjBmT-14" vertex="1" connectable="0">
          <mxGeometry x="-0.35" y="2" relative="1" as="geometry">
            <mxPoint as="offset" />
          </mxGeometry>
        </mxCell>
        <mxCell id="GOMUIUu2Eh7TMkzUjBmT-8" value="启动telemetry cli" style="rounded=1;whiteSpace=wrap;html=1;fillColor=#f8cecc;strokeColor=#b85450;" parent="1" vertex="1">
          <mxGeometry x="280" y="180" width="120" height="120" as="geometry" />
        </mxCell>
        <mxCell id="GOMUIUu2Eh7TMkzUjBmT-9" value="定时任务" style="text;html=1;strokeColor=none;fillColor=none;align=center;verticalAlign=middle;whiteSpace=wrap;rounded=0;" parent="1" vertex="1">
          <mxGeometry x="310" y="190" width="60" height="30" as="geometry" />
        </mxCell>
        <mxCell id="GOMUIUu2Eh7TMkzUjBmT-18" style="edgeStyle=orthogonalEdgeStyle;rounded=0;orthogonalLoop=1;jettySize=auto;html=1;exitX=0.5;exitY=1;exitDx=0;exitDy=0;" parent="1" source="GOMUIUu2Eh7TMkzUjBmT-8" target="GOMUIUu2Eh7TMkzUjBmT-8" edge="1">
          <mxGeometry relative="1" as="geometry" />
        </mxCell>
        <mxCell id="qAYzdebrUSNBeTwNiEMu-2" value="" style="endArrow=classic;html=1;rounded=0;entryX=0;entryY=0.5;entryDx=0;entryDy=0;" parent="1" target="GOMUIUu2Eh7TMkzUjBmT-4" edge="1">
          <mxGeometry width="50" height="50" relative="1" as="geometry">
            <mxPoint x="120" y="440" as="sourcePoint" />
            <mxPoint x="310" y="430" as="targetPoint" />
          </mxGeometry>
        </mxCell>
        <mxCell id="qAYzdebrUSNBeTwNiEMu-3" value="提供了report接口" style="edgeLabel;html=1;align=center;verticalAlign=middle;resizable=0;points=[];" parent="qAYzdebrUSNBeTwNiEMu-2" vertex="1" connectable="0">
          <mxGeometry x="-0.075" y="-1" relative="1" as="geometry">
            <mxPoint as="offset" />
          </mxGeometry>
        </mxCell>
      </root>
    </mxGraphModel>
  </diagram>
  <diagram id="RxoUGslZ3xH0X2vfZMWQ" name="ks代码实现">
    <mxGraphModel dx="1026" dy="685" grid="1" gridSize="10" guides="1" tooltips="1" connect="1" arrows="1" fold="1" page="1" pageScale="1" pageWidth="827" pageHeight="1169" background="#ffffff" math="0" shadow="0">
      <root>
        <mxCell id="0" />
        <mxCell id="1" parent="0" />
        <mxCell id="8v7HKV5e4WnOdHUmZpPN-20" value="" style="rounded=1;whiteSpace=wrap;html=1;fillColor=#dae8fc;strokeColor=#6c8ebf;" parent="1" vertex="1">
          <mxGeometry x="160" y="240" width="660" height="500" as="geometry" />
        </mxCell>
        <mxCell id="8v7HKV5e4WnOdHUmZpPN-6" value="" style="edgeStyle=orthogonalEdgeStyle;rounded=0;orthogonalLoop=1;jettySize=auto;html=1;" parent="1" target="8v7HKV5e4WnOdHUmZpPN-5" edge="1">
          <mxGeometry relative="1" as="geometry">
            <mxPoint x="320" y="160" as="sourcePoint" />
          </mxGeometry>
        </mxCell>
        <mxCell id="8v7HKV5e4WnOdHUmZpPN-8" value="修改telemetry配置" style="edgeLabel;html=1;align=center;verticalAlign=middle;resizable=0;points=[];" parent="8v7HKV5e4WnOdHUmZpPN-6" vertex="1" connectable="0">
          <mxGeometry x="-0.0769" relative="1" as="geometry">
            <mxPoint as="offset" />
          </mxGeometry>
        </mxCell>
        <mxCell id="8v7HKV5e4WnOdHUmZpPN-2" value="" style="endArrow=classic;html=1;rounded=0;" parent="1" edge="1">
          <mxGeometry width="50" height="50" relative="1" as="geometry">
            <mxPoint x="40" y="160" as="sourcePoint" />
            <mxPoint x="200" y="160" as="targetPoint" />
          </mxGeometry>
        </mxCell>
        <mxCell id="8v7HKV5e4WnOdHUmZpPN-7" value="PATCH /telemetry/{enable}" style="edgeLabel;html=1;align=center;verticalAlign=middle;resizable=0;points=[];" parent="8v7HKV5e4WnOdHUmZpPN-2" vertex="1" connectable="0">
          <mxGeometry x="0.0625" relative="1" as="geometry">
            <mxPoint x="-5" y="-10" as="offset" />
          </mxGeometry>
        </mxCell>
        <mxCell id="8v7HKV5e4WnOdHUmZpPN-10" value="" style="edgeStyle=orthogonalEdgeStyle;rounded=0;orthogonalLoop=1;jettySize=auto;html=1;" parent="1" source="8v7HKV5e4WnOdHUmZpPN-5" target="8v7HKV5e4WnOdHUmZpPN-9" edge="1">
          <mxGeometry relative="1" as="geometry" />
        </mxCell>
        <mxCell id="8v7HKV5e4WnOdHUmZpPN-5" value="configmap&lt;br&gt;(kubesphere-system/kubesphere-config)" style="shape=parallelogram;perimeter=parallelogramPerimeter;whiteSpace=wrap;html=1;fixedSize=1;" parent="1" vertex="1">
          <mxGeometry x="490" y="130" width="260" height="60" as="geometry" />
        </mxCell>
        <mxCell id="8v7HKV5e4WnOdHUmZpPN-12" value="" style="edgeStyle=orthogonalEdgeStyle;rounded=0;orthogonalLoop=1;jettySize=auto;html=1;" parent="1" source="8v7HKV5e4WnOdHUmZpPN-9" target="8v7HKV5e4WnOdHUmZpPN-11" edge="1">
          <mxGeometry relative="1" as="geometry" />
        </mxCell>
        <mxCell id="8v7HKV5e4WnOdHUmZpPN-9" value="viper.WatchConfig" style="whiteSpace=wrap;html=1;" parent="1" vertex="1">
          <mxGeometry x="430" y="270" width="120" height="60" as="geometry" />
        </mxCell>
        <mxCell id="8v7HKV5e4WnOdHUmZpPN-14" value="" style="edgeStyle=orthogonalEdgeStyle;rounded=0;orthogonalLoop=1;jettySize=auto;html=1;" parent="1" source="8v7HKV5e4WnOdHUmZpPN-11" target="8v7HKV5e4WnOdHUmZpPN-13" edge="1">
          <mxGeometry relative="1" as="geometry" />
        </mxCell>
        <mxCell id="8v7HKV5e4WnOdHUmZpPN-11" value="manager.Elected()" style="whiteSpace=wrap;html=1;" parent="1" vertex="1">
          <mxGeometry x="430" y="410" width="120" height="60" as="geometry" />
        </mxCell>
        <mxCell id="8v7HKV5e4WnOdHUmZpPN-16" value="" style="edgeStyle=orthogonalEdgeStyle;rounded=0;orthogonalLoop=1;jettySize=auto;html=1;" parent="1" source="8v7HKV5e4WnOdHUmZpPN-13" target="8v7HKV5e4WnOdHUmZpPN-15" edge="1">
          <mxGeometry relative="1" as="geometry" />
        </mxCell>
        <mxCell id="8v7HKV5e4WnOdHUmZpPN-18" value="" style="edgeStyle=orthogonalEdgeStyle;rounded=0;orthogonalLoop=1;jettySize=auto;html=1;" parent="1" source="8v7HKV5e4WnOdHUmZpPN-13" target="8v7HKV5e4WnOdHUmZpPN-17" edge="1">
          <mxGeometry relative="1" as="geometry" />
        </mxCell>
        <mxCell id="8v7HKV5e4WnOdHUmZpPN-13" value="Telemetry" style="whiteSpace=wrap;html=1;" parent="1" vertex="1">
          <mxGeometry x="430" y="550" width="120" height="60" as="geometry" />
        </mxCell>
        <mxCell id="8v7HKV5e4WnOdHUmZpPN-15" value="Collector" style="whiteSpace=wrap;html=1;" parent="1" vertex="1">
          <mxGeometry x="260" y="640" width="120" height="60" as="geometry" />
        </mxCell>
        <mxCell id="8v7HKV5e4WnOdHUmZpPN-30" style="edgeStyle=orthogonalEdgeStyle;rounded=0;orthogonalLoop=1;jettySize=auto;html=1;exitX=0.5;exitY=1;exitDx=0;exitDy=0;" parent="1" source="8v7HKV5e4WnOdHUmZpPN-17" target="GQ_EBFi2zNv2FEIkWbtl-1" edge="1">
          <mxGeometry relative="1" as="geometry">
            <mxPoint x="490" y="860" as="targetPoint" />
          </mxGeometry>
        </mxCell>
        <mxCell id="GQ_EBFi2zNv2FEIkWbtl-2" style="edgeStyle=orthogonalEdgeStyle;rounded=0;orthogonalLoop=1;jettySize=auto;html=1;" edge="1" parent="1" source="8v7HKV5e4WnOdHUmZpPN-17" target="GQ_EBFi2zNv2FEIkWbtl-3">
          <mxGeometry relative="1" as="geometry">
            <mxPoint x="280" y="910" as="targetPoint" />
            <Array as="points">
              <mxPoint x="690" y="770" />
              <mxPoint x="280" y="770" />
            </Array>
          </mxGeometry>
        </mxCell>
        <mxCell id="8v7HKV5e4WnOdHUmZpPN-17" value="Store" style="whiteSpace=wrap;html=1;" parent="1" vertex="1">
          <mxGeometry x="630" y="640" width="120" height="60" as="geometry" />
        </mxCell>
        <mxCell id="8v7HKV5e4WnOdHUmZpPN-19" value="ks-apiserver" style="rounded=1;whiteSpace=wrap;html=1;fillColor=#dae8fc;strokeColor=#6c8ebf;" parent="1" vertex="1">
          <mxGeometry x="200" y="130" width="120" height="60" as="geometry" />
        </mxCell>
        <mxCell id="8v7HKV5e4WnOdHUmZpPN-21" value="ks-controller-manager" style="text;html=1;strokeColor=none;fillColor=none;align=center;verticalAlign=middle;whiteSpace=wrap;rounded=0;" parent="1" vertex="1">
          <mxGeometry x="240" y="260" width="120" height="30" as="geometry" />
        </mxCell>
        <mxCell id="GQ_EBFi2zNv2FEIkWbtl-1" value="secret&lt;br&gt;(kubesphere-system/telemetry)" style="shape=parallelogram;perimeter=parallelogramPerimeter;whiteSpace=wrap;html=1;fixedSize=1;" vertex="1" parent="1">
          <mxGeometry x="490" y="840" width="280" height="80" as="geometry" />
        </mxCell>
        <mxCell id="GQ_EBFi2zNv2FEIkWbtl-3" value="ks-cloud" style="ellipse;shape=cloud;whiteSpace=wrap;html=1;" vertex="1" parent="1">
          <mxGeometry x="220" y="840" width="120" height="80" as="geometry" />
        </mxCell>
      </root>
    </mxGraphModel>
  </diagram>
</mxfile>
